<svg xmlns="http://www.w3.org/2000/svg" viewBox="0 0 640 640"><path fill="#fff" d="M506.582 35.654a24 24 0 0 0-18.943 9.58L104.678 554.875a24 24 0 0 0 4.77 33.604 24 24 0 0 0 33.603-4.77L295 381.499l88.4 176.7c7.9 15.8 27.1 22.201 42.9 14.301s22.2-27.1 14.3-42.9l-88.9-177.7H504c10.4 0 19.6-6.6 22.8-16.4s-.1-20.6-8.4-26.8l-107.908-80.897L526.012 74.07a24 24 0 0 0-4.77-33.603 24 24 0 0 0-11.525-4.639 24 24 0 0 0-3.135-.174M184.957 63.971a23.7 23.7 0 0 0-11.656 2.53A23.98 23.98 0 0 0 160 87.999V401.37l173.691-231.144L198.401 68.8a23.7 23.7 0 0 0-13.444-4.83"/></svg>